<mxfile host="app.diagrams.net" modified="2023-11-22T19:05:14.913Z" agent="Mozilla/5.0 (Windows NT 10.0; Win64; x64) AppleWebKit/537.36 (KHTML, like Gecko) Chrome/119.0.0.0 Safari/537.36 Edg/119.0.0.0" etag="42yE1p4IYdhn71IMQ49p" version="22.1.3" type="device">
  <diagram name="Page-1" id="mUyAikBEkfKeO0XjISf7">
    <mxGraphModel dx="1426" dy="803" grid="1" gridSize="10" guides="1" tooltips="1" connect="1" arrows="1" fold="1" page="1" pageScale="1" pageWidth="850" pageHeight="1100" math="0" shadow="0">
      <root>
        <mxCell id="0" />
        <mxCell id="1" parent="0" />
        <mxCell id="HVUczFYNgCfFE6jhYIkl-3" value="" style="sketch=0;html=1;aspect=fixed;strokeColor=none;shadow=0;fillColor=#3B8DF1;verticalAlign=top;labelPosition=center;verticalLabelPosition=bottom;shape=mxgraph.gcp2.phone_android" parent="1" vertex="1">
          <mxGeometry x="240" y="50" width="358.4" height="640" as="geometry" />
        </mxCell>
        <mxCell id="5B4gjGT3E23NP6MAHSq9-1" value="" style="rounded=0;whiteSpace=wrap;html=1;" parent="1" vertex="1">
          <mxGeometry x="320" y="480" width="200" height="60" as="geometry" />
        </mxCell>
        <mxCell id="5B4gjGT3E23NP6MAHSq9-2" value="" style="shape=flexArrow;endArrow=classic;html=1;rounded=0;" parent="1" edge="1">
          <mxGeometry width="50" height="50" relative="1" as="geometry">
            <mxPoint x="309" y="509.5" as="sourcePoint" />
            <mxPoint x="289" y="509.5" as="targetPoint" />
          </mxGeometry>
        </mxCell>
        <mxCell id="5B4gjGT3E23NP6MAHSq9-3" value="" style="shape=flexArrow;endArrow=classic;html=1;rounded=0;" parent="1" edge="1">
          <mxGeometry width="50" height="50" relative="1" as="geometry">
            <mxPoint x="530" y="510" as="sourcePoint" />
            <mxPoint x="550" y="509.5" as="targetPoint" />
          </mxGeometry>
        </mxCell>
        <mxCell id="5B4gjGT3E23NP6MAHSq9-4" value=". . ." style="text;strokeColor=none;fillColor=none;html=1;fontSize=24;fontStyle=1;verticalAlign=middle;align=center;" parent="1" vertex="1">
          <mxGeometry x="365" y="530" width="100" height="40" as="geometry" />
        </mxCell>
        <mxCell id="l-rDjYEGQ8ozF9IzRxdp-1" value="" style="endArrow=none;html=1;rounded=0;exitX=0;exitY=1;exitDx=0;exitDy=0;entryX=1;entryY=0;entryDx=0;entryDy=0;" edge="1" parent="1" source="5B4gjGT3E23NP6MAHSq9-1" target="5B4gjGT3E23NP6MAHSq9-1">
          <mxGeometry width="50" height="50" relative="1" as="geometry">
            <mxPoint x="390" y="420" as="sourcePoint" />
            <mxPoint x="440" y="370" as="targetPoint" />
          </mxGeometry>
        </mxCell>
        <mxCell id="l-rDjYEGQ8ozF9IzRxdp-2" value="" style="endArrow=none;html=1;rounded=0;exitX=0;exitY=0;exitDx=0;exitDy=0;entryX=1;entryY=1;entryDx=0;entryDy=0;" edge="1" parent="1" source="5B4gjGT3E23NP6MAHSq9-1" target="5B4gjGT3E23NP6MAHSq9-1">
          <mxGeometry width="50" height="50" relative="1" as="geometry">
            <mxPoint x="400" y="440" as="sourcePoint" />
            <mxPoint x="450" y="390" as="targetPoint" />
          </mxGeometry>
        </mxCell>
      </root>
    </mxGraphModel>
  </diagram>
</mxfile>
